<svg xmlns="http://www.w3.org/2000/svg" width="1920" height="145" viewBox="0 0 1920 145"><rect width="1920" height="145" fill="#fff" opacity="0"/><g transform="translate(-83 1)"><g transform="translate(374 57.978)"><path d="M403.7,283.8l-.17.235-.541.72,0,0-.179.242,0,0-.233.3v0l-.254.347v0l-.23.306-.48.643-.366.487-.889,1.186-.188.247-.043.066-.141.17-.042.059-.234.309-.784,1.063-.182.245h.006l-.491.654-.469.638-.224.326a.043.043,0,0,0-.012.043.1.1,0,0,0-.052.02l-.188.232-1.5,2.027,0-.006q-.206.273-.414.544v0l-.455.606a.032.032,0,0,0-.025.039l-.462.618-.075.1-.581.737-.188.289h.55l10.559,0-.495.774-.044.063-.32.411-.042.06-.123.184v0l-.179.241,0,0-.542.719-.589.777-.314.414-.224.3-.3.422-.713.949-.184.244-.479.658-.05.058-.24.3-.176.243-.3.41-.182.242-.478.653,0,0-.369.479-.108.166-1.405,1.875-.32.413-.177.242-.712.96-.233.3a.037.037,0,0,0-.014.043l-.484.66,0,0-.541.717h0l-.188.241c-.123.155-.252.306-.366.467a2.11,2.11,0,0,0-.141.274,2.628,2.628,0,0,0,.288.031q5.24,0,10.481,0c.109,0,.217.012.326.019l-.006,0q0,4.789,0,9.577c0,.451.059.4-.395.4q-10.117,0-20.232,0c-.089,0-.179-.007-.268-.012V282.547h.06a2.4,2.4,0,0,0,.369.057q9.483,0,18.967,0c.363,0,.726.037,1.09.057l-.351.625-.01.089h0Z" transform="translate(-383.888 -276.244)" fill="#fff"/><path d="M431.952,309.494l0,0,.308-.167.648-.374.716-.531h0l.6-.577,1.663-1.947.3-.459c.113-.259.228-.518.339-.778.128-.3.253-.6.379-.9l.306-1.352.057-.311a.08.08,0,0,1,.048-.012l0,0,.08-1.547,0,0-11.407,0c-.039,0-.079,0-.119-.007l-.358,0-.126,0-.106.011-.727.1-2.026.549-.718.3v0l-.187.109-.832.483-1.321,1.01-.063.107-.455.435a.053.053,0,0,0-.021.042l-.184.195-.456.483-.671,1.055c.087.242-.106.321-.248.43l-.516,1.032-.119.349-.249,1-.114.549-.067.469-.053.486-.008.164c.024.611.024.611.649.611l10.522,0-.126-.092.13-.023a1.956,1.956,0,0,0-.339-.057q-5.071,0-10.142,0h-.321v-.06h.276q5.162,0,10.321,0a1.974,1.974,0,0,1,.39.076c0,.008,0,.02-.009.023a.566.566,0,0,1-.056.017v.12c0,.014,0,.029,0,.043l.179-.039.8-.057,1.534-.244.022-.011h.025l.315-.1.234-.071Z" transform="translate(-389.736 -279.495)" fill="#fff"/><g transform="translate(26.485 36.096)"><path d="M433.752,326.58l-.364.335-.605.406v0l-.953.539h-.006l-.7.306h0l-1.8.525-.112.021-.719.107h0l-10.626.012c-.537,0-1.074-.006-1.611-.009l-.034-.469.335-2.1.251-.828.094-.31a.062.062,0,0,0,.012-.049l1.378-2.388.186-.235.265-.31.966-.96.07-.061.312-.224.283-.2.489-.341,2.28-1.072.1-.017.823-.178.307-.066.31-.093.467-.017.126.01c.068.038.135.108.2.109.637.008,1.274,0,1.911,0H433.6q1.669,0,3.339,0a.46.46,0,0,1,.394.238l.051.3-.111.837-.054.3,0,0-.121.549-.011.215q-.14.425-.279.85a.077.077,0,0,0-.012.057l-.242.6-.115.195c-.143.266-.282.533-.43.8-.108.193-.228.378-.342.567l0,0-.3.406-.425.537Z" transform="translate(-416.215 -318.911)" fill="#fff"/><path d="M431.753,330.506l.013.061.79-.063,0-.057Z" transform="translate(-419.023 -320.996)" fill="#fff"/><path d="M419.8,322.959c.027-.035.059-.06.055-.076a.346.346,0,0,0-.054-.09c-.023.02-.068.043-.066.058A.371.371,0,0,0,419.8,322.959Z" transform="translate(-416.851 -319.613)" fill="#fff"/><path d="M419.5,323.226l-.04-.038c-.026.011-.068.016-.075.034a.539.539,0,0,0-.015.127Z" transform="translate(-416.785 -319.684)" fill="#fff"/></g><g transform="translate(26.507 6.074)"><path d="M421.386,283.453l1.141-.531.181-.043.291-.089.366-.161.351-.087.7-.112.374-.047.306,0h.481v-.052l-.313-.016.848-.045v.051h-.351l0,.06h.348q5.325,0,10.651,0a2.039,2.039,0,0,0,.339-.057h0c.174-.021.252.043.243.23-.011.245,0,.492,0,.738l-.111.827-.067.3-.251,1.065-.042.007-.184.492-.07.274-.283.489-.014.112-.425.766-.511.673-.32.4-.4.5-.007.006-.9.834-.2.164a.041.041,0,0,0-.04.018l-.481.349-.362.237-.183.111a.075.075,0,0,0-.052.025l-.364.219h0l-.247.116-.113.051-.167.079-.123.059-1.319.47,0,0-.541.107-.411.072-.712.107c-.026-.029-.054-.086-.079-.085-.166.008-.333.043-.5.043q-5.515,0-11.03,0a2.14,2.14,0,0,0-.341.055l-.231,0-.019-.6.076-1.055q.114-.512.229-1.026a.067.067,0,0,0,.014-.054q.214-.6.429-1.191l.279-.6.19-.349v0a.07.07,0,0,0,.046-.013l.177-.309,0-.052.349-.538.3-.353.418-.482.188-.187.351-.409L419.3,285l.6-.529,0,0,.473-.371Z" transform="translate(-416.242 -282.267)" fill="#fff"/><path d="M416.527,293.272l-.03,0v.281l.03,0Z" transform="translate(-416.288 -284.256)" fill="#fff"/><path d="M416.6,292.9l-.059-.007-.026.148.049.007C416.577,293,416.588,292.946,416.6,292.9Z" transform="translate(-416.291 -284.187)" fill="#fff"/></g></g><text transform="translate(435 96)" fill="#fff" font-size="34" font-family="GenYoGothicTW-B, GenYoGothic TW"><tspan x="0" y="0">環境教育探索館</tspan></text><text transform="translate(373 120)" fill="#fff" font-size="14" font-family="GenYoGothicTW-Normal, GenYoGothic TW" letter-spacing="-0.021em"><tspan x="0" y="0">ENVIRONMENTAL EDUCATION EXPLORATORIUM</tspan><tspan x="0" y="16"></tspan></text></g><text transform="translate(1582 31)" fill="#fff" font-size="21" font-family="GenYoGothicTW-B, GenYoGothic TW"><tspan x="0" y="0">EN</tspan></text><text transform="translate(1556 32)" fill="#fff" font-size="21" font-family="GenYoGothicTW-B, GenYoGothic TW"><tspan x="0" y="0">f</tspan></text><text transform="translate(1041 28)" fill="#fff" font-size="15" font-family="GenYoGothicTW-R, GenYoGothic TW"><tspan x="0" y="0" xml:space="preserve">    網站導覽     |     登入       </tspan></text><rect width="170" height="30" rx="15" transform="translate(1201 8)" fill="#fff" opacity="0.27"/><path d="M1535.893-6.081l-5.879-5.879a8.216,8.216,0,0,0-.637-10.884,8.213,8.213,0,0,0-11.6,0,8.213,8.213,0,0,0,0,11.6,8.214,8.214,0,0,0,10.884.637l5.879,5.879a.958.958,0,0,0,1.356,0A.96.96,0,0,0,1535.893-6.081Zm-7.872-6.516a6.3,6.3,0,0,1-8.892,0,6.3,6.3,0,0,1,0-8.891,6.293,6.293,0,0,1,8.891,0A6.293,6.293,0,0,1,1528.021-12.6Z" transform="translate(-175.491 38.444)" fill="#fff"/><text transform="translate(1217 28)" fill="#fff" font-size="13" font-family="MicrosoftJhengHeiRegular, Microsoft JhengHei"><tspan x="0" y="0">請輸入關鍵字</tspan></text><g transform="translate(1551.513 64.566)"><path d="M540.218,434.694V412.931a.88.88,0,0,0,.069-.16,2.443,2.443,0,0,1,2.554-2.026q15.472,0,30.945,0a2.473,2.473,0,0,1,2.591,2.6q0,10.44,0,20.877a3.069,3.069,0,0,1-.112.834,2.5,2.5,0,0,1-2.571,1.8c-.384,0-.77,0-1.19,0,.184,1.12.353,2.186.535,3.25a1.465,1.465,0,0,1-.949,1.81,1.685,1.685,0,0,1-1.289-.2c-1.206-.639-2.415-1.27-3.618-1.912a.91.91,0,0,0-.934,0c-1.14.612-2.287,1.21-3.435,1.808a3.765,3.765,0,0,1-.709.307,1.333,1.333,0,0,1-1.7-1,2.583,2.583,0,0,1,.006-.875c.155-1.045.336-2.085.515-3.184H542.984a2.508,2.508,0,0,1-2.706-2.077A.314.314,0,0,0,540.218,434.694Zm31.927,0a.718.718,0,0,0,.138.042c.412,0,.824.009,1.236.01.679,0,.757-.076.757-.742V413.56c0-.641-.072-.714-.7-.714H543.059c-.661,0-.723.063-.723.726v20.45c0,.094,0,.189,0,.282a.414.414,0,0,0,.414.437c.128.012.258.009.388.009h17.59c.094,0,.189-.007.282,0,.188.013.266-.066.3-.257.1-.663.231-1.32.317-1.984a.759.759,0,0,0-.159-.472,6.408,6.408,0,0,1-1.182-4.7,6.489,6.489,0,1,1,11.657,4.716.618.618,0,0,0-.153.372C571.894,433.188,572.025,433.95,572.145,434.7Zm-5.459-2.11a4.389,4.389,0,1,0-4.364-4.388A4.4,4.4,0,0,0,566.686,432.589Zm4.084,6.726-.892-5.424a6.635,6.635,0,0,1-6.337,0l-.886,5.4c.154-.066.25-.1.34-.147.676-.354,1.367-.685,2.023-1.073a3.106,3.106,0,0,1,3.369-.012C569.136,438.49,569.92,438.869,570.77,439.315Zm-.984-20.306a3.78,3.78,0,0,0,.458-.012,1.03,1.03,0,0,0,.853-1.3c-.157-.547-.545-.794-1.256-.794H546a2.549,2.549,0,0,0-.352.012,1.084,1.084,0,0,0-.954.985,1.045,1.045,0,0,0,.727,1.052,2.038,2.038,0,0,0,.558.052q5.97,0,11.94,0ZM545.8,422.752a1.03,1.03,0,0,0-1.043.686,1.06,1.06,0,0,0,1.094,1.412c1.235.01,2.471,0,3.706,0q3.159,0,6.319,0a1.148,1.148,0,0,0,1.043-.473,1.044,1.044,0,0,0-.882-1.632q-2.559.005-5.117,0T545.8,422.752Z" transform="translate(-526.891 -408.54)" fill="#fff"/><text transform="translate(0.487 56.434)" fill="#fff" font-size="16" font-family="MicrosoftJhengHeiBold, Microsoft JhengHei"><tspan x="0" y="0">認證資訊</tspan></text></g><g transform="translate(1356.05 64.316)"><text transform="translate(-0.05 56.684)" fill="#fff" font-size="16" font-family="MicrosoftJhengHeiBold, Microsoft JhengHei"><tspan x="0" y="0">環境講習</tspan></text><path d="M369.3,437.046a1.68,1.68,0,0,1,.183-.256,4.832,4.832,0,0,1,6.854.256h3.686a1.682,1.682,0,0,1,.183-.256,4.832,4.832,0,0,1,6.854.256h1.273a4.5,4.5,0,0,0-1.474-1.522c-.411-.278-.861-.5-1.3-.744a.113.113,0,0,1,.018-.05c.062-.064.126-.125.191-.187a2.576,2.576,0,0,0,.851-1.629,10.35,10.35,0,0,0,.022-2.165,3.136,3.136,0,0,0-3.144-2.729,3.17,3.17,0,0,0-3.134,2.711,9.718,9.718,0,0,0-.057,1.4,3.175,3.175,0,0,0,1.094,2.558.551.551,0,0,1,.08.128,6.122,6.122,0,0,0-2.792,2.129v-11.1h21.725c.6,0,.769-.162.769-.741V407.258c0-.568-.169-.737-.739-.737h-26.37c-.572,0-.741.167-.741.734,0,1.8-.008,3.594.007,5.391a.443.443,0,0,1-.355.517,3.1,3.1,0,0,0-2.163,2.281,4.735,4.735,0,0,0,.727,4.38c.01.012,0,.039,0,.076-.087,0-.173.014-.259.015a3.751,3.751,0,0,0-3.855,3.917q0,3.1,0,6.194a2.684,2.684,0,0,0,1.959,2.686.506.506,0,0,1,.275.3,3.362,3.362,0,0,0,.931,1.6c.055.052.1.113.162.186-.251.118-.488.213-.71.335a5.16,5.16,0,0,0-2.1,1.909Zm9.4-12.256v-1.152h.359c1.5,0,2.993-.007,4.49,0a1.178,1.178,0,0,0,1.052-.5c1.04-1.354,2.122-2.676,3.186-4.013a1.78,1.78,0,0,0,.485-1.63,1.61,1.61,0,0,0-.749-1.062.517.517,0,0,1-.278-.536c.008-2.12,0-4.241,0-6.362,0-.078,0-.156,0-.235-.008-.4-.214-.647-.528-.642s-.513.253-.514.655q0,3.232,0,6.463v.417a3.26,3.26,0,0,0-2.043,1.436c-.573.685-1.128,1.385-1.7,2.066a.581.581,0,0,1-.38.2c-1.731.014-3.463.01-5.194.009-.062,0-.124-.011-.186-.016,0-.045,0-.071.009-.084a4.664,4.664,0,0,0,.752-4.252A3.21,3.21,0,0,0,374.721,413c-.107-.022-.213-.048-.323-.072v-5.349h25.724V424.79Zm-3.874,10.029c.018-.051.019-.079.033-.092,1.348-1.185,1.323-2.747,1-4.271a3.143,3.143,0,0,0-4.932-1.825l-.3.207v-.413q0-2.242,0-4.486c0-.09,0-.179,0-.268a.519.519,0,1,0-1.037-.013c-.009.1,0,.2,0,.3q0,3.648,0,7.3v.369a1.459,1.459,0,0,1-1.095-1.377c-.011-2.266-.024-4.532,0-6.8a2.643,2.643,0,0,1,2.59-2.492c2.256-.013,4.512,0,6.768,0,1.429,0,2.858-.012,4.288,0a1.248,1.248,0,0,0,1.108-.521c.677-.887,1.412-1.729,2.134-2.579a1.537,1.537,0,0,1,1.123-.651.705.705,0,0,1,.729.366.689.689,0,0,1-.13.8q-1.194,1.488-2.383,2.981c-.258.323-.528.636-.769.97a.607.607,0,0,1-.558.275c-1.664-.013-3.328-.007-4.992-.007-.619,0-.776.156-.776.766v13.511A6.9,6.9,0,0,0,374.826,434.819Zm-3.045-19.007a2.421,2.421,0,0,1,4.768.537,8.7,8.7,0,0,1-.08,1.728,2.39,2.39,0,0,1-2.631,1.829,2.434,2.434,0,0,1-2.136-2.365c0-.2,0-.4,0-.6l-.031,0A8.564,8.564,0,0,1,371.781,415.812Zm3.084,17.046a2.152,2.152,0,0,1-4.232-.508,8.169,8.169,0,0,1,.07-1.631,2.106,2.106,0,0,1,2.342-1.648,2.163,2.163,0,0,1,1.9,2.123c0,.19,0,.379,0,.569l.032,0A7.755,7.755,0,0,1,374.865,432.858Zm10.768-.174a2.157,2.157,0,0,1-4.279-.421,7.938,7.938,0,0,1,.074-1.565,2.119,2.119,0,0,1,2.361-1.627,2.167,2.167,0,0,1,1.879,2.109c0,.2,0,.4,0,.6h.014A6.547,6.547,0,0,1,385.633,432.684Zm5.115,4.362a1.558,1.558,0,0,1,.183-.256,4.832,4.832,0,0,1,6.854.256h1.273a8.175,8.175,0,0,0-.976-1.122c-.548-.444-1.172-.792-1.781-1.193-.014.045-.014.018,0,0,.062-.065.125-.126.19-.188a2.567,2.567,0,0,0,.853-1.627,10.721,10.721,0,0,0,.021-2.2,3.135,3.135,0,0,0-3.132-2.7,3.175,3.175,0,0,0-3.142,2.7,10.124,10.124,0,0,0-.059,1.334,3.213,3.213,0,0,0,1.088,2.628.643.643,0,0,1,.085.119c-.224.107-.437.2-.64.3a5.271,5.271,0,0,0-2.158,1.938Zm5.564-4.194a2.153,2.153,0,0,1-4.234-.5,8.278,8.278,0,0,1,.075-1.665,2.114,2.114,0,0,1,2.365-1.62,2.166,2.166,0,0,1,1.873,2.114c0,.19,0,.38,0,.57l.031,0A7.779,7.779,0,0,1,396.313,432.852Z" transform="translate(-353.238 -404.922)" fill="#fff"/></g><g transform="translate(1454.281 62.17)"><text transform="translate(-0.281 58.83)" fill="#fff" font-size="16" font-family="MicrosoftJhengHeiBold, Microsoft JhengHei"><tspan x="0" y="0">終身學習</tspan></text><path d="M472.078,441.719c-.657-.173-1.324-.316-1.969-.524a63.137,63.137,0,0,1-7.2-2.947c-2.145-1-4.266-2.052-6.4-3.08l-.214-.107c-.414-.211-.558-.5-.4-.8s.453-.346.863-.143c.817.4,1.629.817,2.448,1.215,3.278,1.59,6.565,3.157,9.98,4.436.745.278,1.513.493,2.272.732a3.3,3.3,0,0,0,2.145-.1,28.288,28.288,0,0,0,4.762-2.367c.181-.106.359-.216.589-.354-.831-.222-1.6-.37-2.333-.632a14.562,14.562,0,0,0-6.388-.42c-.86.079-1.714.225-2.57.345-.429.061-.709-.1-.759-.435-.045-.3.187-.544.592-.616a29.6,29.6,0,0,1,6.735-.468,12.265,12.265,0,0,1,2.165.448c1.072.256,2.133.559,3.209.8a1.342,1.342,0,0,0,1.472-.484,1.427,1.427,0,0,0,.038-1.584,2.689,2.689,0,0,0-.574-.755,5.148,5.148,0,0,0-1.715-1.079,18.566,18.566,0,0,0-4.2-.873c-1.109-.126-2.224-.206-3.327-.369a3.372,3.372,0,0,1-1.161-.468,21.882,21.882,0,0,0-6.459-2.618,18.037,18.037,0,0,0-5.421-.507,12.979,12.979,0,0,0-1.643.287c-.4.089-.674,0-.776-.325-.093-.3.073-.562.453-.683a9.039,9.039,0,0,1,2.937-.366,22.288,22.288,0,0,1,10.754,2.935c.3.172.609.343,1,.56-.073-.587-.128-1.088-.2-1.586a56.712,56.712,0,0,0-1.909-8.691c-.114-.369-.225-.74-.362-1.1a.356.356,0,0,0-.252-.2,3.211,3.211,0,0,1-2.367-1.13,6.408,6.408,0,0,1-1.461-3.187,18.121,18.121,0,0,1-.314-4.045c.016-1.057-.027-2.115-.008-3.172a.8.8,0,0,1,.287-.566.658.658,0,0,1,.591-.023,3.631,3.631,0,0,1,.832.7,36.306,36.306,0,0,1,4.108,5.5,5.077,5.077,0,0,1,.642,3.715,2.961,2.961,0,0,1-.923,1.6.451.451,0,0,0-.135.361c.5,1.844,1.01,3.684,1.521,5.524.011.04.027.081.055.163.288-.361.566-.687.812-1.036.047-.066-.006-.231-.053-.331a7.043,7.043,0,0,1-.733-2.367,4.029,4.029,0,0,1,.612-2.608,6.305,6.305,0,0,1,.793-1.024,12.053,12.053,0,0,1,5.893-3.324,36.4,36.4,0,0,1,7.043-1.067,11.057,11.057,0,0,1,1.835.126.7.7,0,0,1,.688.567c.058.341-.2.513-.388.742a10.446,10.446,0,0,0-1.116,1.536,56,56,0,0,1-4.338,7.3,7.071,7.071,0,0,1-4.292,2.836,5.319,5.319,0,0,1-5.118-1.459,1.37,1.37,0,0,0-.126-.094,3.332,3.332,0,0,0-1.065,2.679c.184,1.215.355,2.432.549,3.645a.4.4,0,0,0,.259.273q1.355.167,2.717.282a1.061,1.061,0,0,0,.552-.107c1.251-.656,2.486-1.339,3.74-1.987a12.856,12.856,0,0,1,1.655-.725,1.887,1.887,0,0,1,2.229.458c.542-.313,1.084-.623,1.624-.936a5.986,5.986,0,0,1,2.729-.9,5.122,5.122,0,0,1,2.458.461,1.572,1.572,0,0,1,.778.863v.479a5.2,5.2,0,0,0-.367.939,2.341,2.341,0,0,1-.672,1.351c-1.033.959-2.022,1.98-3.14,2.827-1.859,1.409-3.78,2.742-5.724,4.034a36.23,36.23,0,0,1-5.969,3.3c-.729.306-1.5.5-2.256.752Zm1.271-18.522a3.483,3.483,0,0,0,1.9,1.288,5.115,5.115,0,0,0,4.821-1.109,9.17,9.17,0,0,0,1.7-1.9c.931-1.427,1.767-2.919,2.624-4.393.606-1.042,1.182-2.1,1.775-3.149.07-.124.16-.236.277-.408-.188,0-.309,0-.432,0a33.913,33.913,0,0,0-6.357.8,12.821,12.821,0,0,0-4.924,2.065,8.176,8.176,0,0,0-1.945,1.8,3.54,3.54,0,0,0,.018,4.126c.1-.081.189-.163.286-.236.518-.39,1.029-.793,1.562-1.161a.5.5,0,0,1,.814.349.845.845,0,0,1-.307.552C474.575,422.295,473.966,422.732,473.349,423.2Zm-4.337-6.011.13.047a5.029,5.029,0,0,0,.406-.936,3.9,3.9,0,0,0-.5-2.857,36.747,36.747,0,0,0-3.645-4.982,1.592,1.592,0,0,0-.217-.157c0,.541.016.993,0,1.443a15.053,15.053,0,0,0,.629,5.73,3.509,3.509,0,0,0,1.493,1.972,4.373,4.373,0,0,0,.685.269,7.193,7.193,0,0,0-.376-1.162.531.531,0,0,1,.269-.767c.289-.116.543.009.7.362S468.87,416.84,469.012,417.186Zm13.329,18.3c.177-.115.28-.175.377-.247.939-.7,1.885-1.385,2.812-2.1.768-.589,1.53-1.19,2.262-1.822a13.409,13.409,0,0,0,1.343-1.355,1.982,1.982,0,0,0,.237-.676,2.712,2.712,0,0,0-.686-.058,9.945,9.945,0,0,0-3.631,1.507c-1.156.727-2.327,1.431-3.491,2.145-.083.052-.164.108-.255.168A3.58,3.58,0,0,1,482.341,435.485Zm-2.92-3.6a6.28,6.28,0,0,1,.629.316.489.489,0,0,0,.591-.006c1.269-.781,2.554-1.535,3.815-2.327a11.583,11.583,0,0,1,3.535-1.573,13.163,13.163,0,0,1,1.523-.179l.024-.081a14.212,14.212,0,0,0-1.442-.273,4.839,4.839,0,0,0-2.865.839,54.068,54.068,0,0,1-5.714,3.194C479.5,431.805,479.484,431.826,479.421,431.886Zm-2.23-.71.018.151a2.2,2.2,0,0,0,.813-.015c1-.435,1.984-.911,2.96-1.4.468-.234.905-.531,1.357-.8l-.045-.156a3.535,3.535,0,0,0-.932.142c-.977.431-1.936.9-2.893,1.377C478.033,430.69,477.616,430.941,477.191,431.176Z" transform="translate(-440.941 -406.613)" fill="#fff"/></g><g transform="translate(1159.463 62.978)"><text transform="translate(-0.463 58.022)" fill="#fff" font-size="16" font-family="MicrosoftJhengHeiBold, Microsoft JhengHei"><tspan x="0" y="0">學習資源</tspan></text><path d="M192.586,408.6c.616-.135,1.232-.277,1.85-.4.731-.15,1.465-.286,2.229-.434v-3.422c.647,0,1.265-.024,1.882,0a21.032,21.032,0,0,1,8.676,2.236c.906.459,1.768,1.009,2.634,1.544a.874.874,0,0,0,.722.133,33.405,33.405,0,0,1,7.916-.844,35.047,35.047,0,0,1,8.595,1.138c.1.026.191.058.293.089v24.48c-.779-.183-1.541-.376-2.31-.541a32.6,32.6,0,0,0-8.674-.681,35.062,35.062,0,0,0-6.168.918,1.108,1.108,0,0,1-.494-.007,33.3,33.3,0,0,0-8.854-.953,33.991,33.991,0,0,0-8.3,1.3ZM211,430.6a35.123,35.123,0,0,1,14.359-.008c.009-.122.02-.2.02-.277q0-9.911,0-19.819c0-.217-.051-.323-.286-.356-1.376-.195-2.746-.46-4.127-.6a31.566,31.566,0,0,0-9.592.574c-.31.064-.387.178-.387.484q.015,9.79.008,19.581Zm-2.012-.605v-.41q0-9.658,0-19.315a.522.522,0,0,0-.254-.5,19.7,19.7,0,0,0-8.476-3.268c-.509-.071-1.024-.1-1.557-.151V426.8a21.8,21.8,0,0,1,5.307.936A21.523,21.523,0,0,1,208.992,429.992Zm-14.38.6a37.492,37.492,0,0,1,9.335-.727,18.992,18.992,0,0,0-7.281-1.083V409.8c-.569.107-1.1.228-1.633.3-.336.046-.43.182-.429.521q.016,9.772.008,19.545Zm20.519-16.916,9,5.932-9,5.931Zm5.362,5.933-3.335-2.2v4.4Z" transform="translate(-177.845 -400.485)" fill="#fff"/></g><g transform="translate(963 62.17)"><text transform="translate(0 58.83)" fill="#fff" font-size="16" font-family="MicrosoftJhengHeiBold, Microsoft JhengHei"><tspan x="0" y="0">公告訊息</tspan></text><path d="M58.221,408.826v21.641a1.025,1.025,0,0,0-.071.187,3.882,3.882,0,0,1-3.964,3.359q-13.229,0-26.459,0a4.237,4.237,0,0,1-.9-.091,3.883,3.883,0,0,1-3.1-3.945q0-8.747,0-17.494,0-3.606,0-7.213a1.6,1.6,0,0,1,.62-1.353,1.729,1.729,0,0,1,1.108-.322H52.58c.067,0,.135,0,.2,0a1.454,1.454,0,0,1,1.256.727,2.142,2.142,0,0,1,.243.891c.034.747.011,1.5.011,2.286h.4c.641,0,1.281-.007,1.922,0a1.538,1.538,0,0,1,1.523,1.145A1.455,1.455,0,0,0,58.221,408.826Zm-3.928.189v19.7c0,.526.041.574.571.685a.72.72,0,0,1,.582.786.7.7,0,0,1-.665.675,1.893,1.893,0,0,1-2-2.005q0-11.63,0-23.26v-.49H25.728c-.491,0-.491,0-.491.487q0,12.152,0,24.3a2.4,2.4,0,0,0,2.595,2.607H54.091a2.4,2.4,0,0,0,2.594-2.608V409.5a.967.967,0,0,0-.009-.3c-.026-.073-.114-.175-.177-.176C55.782,409.012,55.064,409.015,54.292,409.015ZM33.141,412.2c1.258,0,2.517,0,3.774,0,.628,0,.885.248.886.875q.007,3.807,0,7.616c0,.627-.254.89-.878.891q-3.809.011-7.617,0c-.639,0-.884-.267-.884-.917q0-3.775,0-7.549c0-.678.239-.917.909-.919Q31.236,412.2,33.141,412.2Zm-3.223,4.648c0,.966.006,1.932,0,2.9,0,.263.085.348.351.347q2.848-.014,5.7,0c.253,0,.358-.063.356-.339q-.014-2.865,0-5.73c0-.257-.094-.327-.335-.326q-2.865.01-5.729,0c-.274,0-.342.1-.339.355C29.923,414.984,29.916,415.917,29.917,416.849Zm-.41-8.555c-.135,0-.27,0-.4.007a.714.714,0,0,0-.673.673.7.7,0,0,0,.574.79,2.262,2.262,0,0,0,.467.042q9.537,0,19.073,0a2.331,2.331,0,0,0,.5-.048.689.689,0,0,0,.542-.646c.033-.519-.277-.815-.871-.816q-4.852,0-9.705,0Zm-.06,19.509a2.162,2.162,0,0,0-.468.046.689.689,0,0,0-.55.674.733.733,0,0,0,.833.789q3.134,0,6.267,0c.517,0,1.034.009,1.551-.007a.708.708,0,0,0,.714-.766c-.011-.461-.332-.734-.9-.737-1.258-.007-2.516,0-3.773,0C31.9,427.8,30.67,427.8,29.447,427.8Zm19.37,1.51a.734.734,0,0,0,.736-.485.688.688,0,0,0-.246-.841,1.53,1.53,0,0,0-.7-.179c-1.4-.016-2.808-.008-4.212-.008q-1.568,0-3.134,0a2.3,2.3,0,0,0-.4.028.743.743,0,0,0,.1,1.478c1.314.008,2.628,0,3.943,0S47.513,429.312,48.816,429.314ZM41,412.2a.71.71,0,0,0-.776.707.721.721,0,0,0,.74.781c.112.009.225.009.336.009q3.606,0,7.211,0a3.077,3.077,0,0,0,.5-.031.687.687,0,0,0,.573-.654.713.713,0,0,0-.77-.81c-1.3-.007-2.606,0-3.908,0S42.3,412.2,41,412.2Zm7.782,13.2a.718.718,0,0,0,.808-.709.727.727,0,0,0-.775-.782c-.1-.007-.2,0-.3,0q-3.6,0-7.21,0a2.88,2.88,0,0,0-.5.031.658.658,0,0,0-.56.555A.726.726,0,0,0,41,425.4c1.3.008,2.605,0,3.908,0S47.487,425.41,48.779,425.4Zm-15.269,0c1.179,0,2.359,0,3.538,0a.7.7,0,0,0,.746-.7.714.714,0,0,0-.7-.781,3.322,3.322,0,0,0-.336-.012H29.478a3.175,3.175,0,0,0-.4.02.7.7,0,0,0-.647.762.721.721,0,0,0,.8.714c1.292.006,2.584,0,3.874,0ZM45.849,417.6c.988,0,1.977.007,2.964,0a.721.721,0,0,0,.766-.875c-.054-.381-.352-.607-.835-.607q-3.84,0-7.681,0a1.8,1.8,0,0,0-.2.009.7.7,0,0,0-.637.668.719.719,0,0,0,.807.808c1.291.007,2.583,0,3.874,0Zm-1.889,2.416c-.988,0-1.976-.006-2.964,0a.72.72,0,0,0-.765.875c.054.382.353.607.835.608q3.84,0,7.681,0a1.781,1.781,0,0,0,.2-.009.7.7,0,0,0,.638-.668.718.718,0,0,0-.808-.807c-1.291-.008-2.583,0-3.874,0Z" transform="translate(-10.221 -399.156)" fill="#fff"/></g><g transform="translate(1061.231 60.819)"><text transform="translate(-0.231 60.181)" fill="#fff" font-size="16" font-family="MicrosoftJhengHeiBold, Microsoft JhengHei"><tspan x="0" y="0">活動資訊</tspan></text><path d="M106.668,420.714c.056-.246.1-.492.171-.734a4.4,4.4,0,0,1,2.144-2.747q2.515-1.444,5.021-2.9a1.816,1.816,0,0,0,.494-.429c.721-.9,1.431-1.806,2.139-2.715q3.02-3.876,6.036-7.755a1.874,1.874,0,0,1,3.147.2c.737,1.233,1.446,2.482,2.156,3.731a.469.469,0,0,0,.514.3c.61-.059,1.225-.062,1.835-.125a.874.874,0,0,1,.986.5,12.635,12.635,0,0,0,.924,1.587,1.148,1.148,0,0,1-.041,1.5c-.33.465-.624.955-.951,1.423a.4.4,0,0,0-.018.508c.669,1.138,1.339,2.276,1.978,3.432a1.871,1.871,0,0,1-1.237,2.755q-1.477.284-2.954.569l-9.2,1.795c-.093.018-.182.048-.321.086.253.438.495.854.733,1.273.293.512.214.8-.292,1.1s-.985.57-1.5.87c.235.407.455.79.675,1.174.431.751.888,1.488,1.288,2.256a2.536,2.536,0,0,1-1.722,3.667,2.506,2.506,0,0,1-2.718-1.249c-.727-1.25-1.431-2.513-2.147-3.77-.3-.523-.611-1.038-.9-1.566-.1-.191-.205-.208-.4-.145a4.418,4.418,0,0,1-5.739-3.336c-.029-.142-.067-.282-.1-.423Zm15.92-15.155c-.11.133-.191.226-.267.324q-2.1,2.7-4.2,5.407-1.238,1.59-2.491,3.167a.356.356,0,0,0-.052.471q1.576,2.695,3.126,5.405a.3.3,0,0,0,.378.168q4.8-.949,9.6-1.883c.407-.079.813-.167,1.246-.257Zm-8.109,9.919c-1.76,1.023-3.507,1.988-5.2,3.041a3.069,3.069,0,0,0-1.245,3.428,3.186,3.186,0,0,0,4.695,1.912c1.474-.825,2.929-1.684,4.392-2.529.179-.1.356-.212.549-.327Zm17.731,1.835a2.557,2.557,0,0,0-.148-.356q-1.8-3.15-3.6-6.295t-3.613-6.254a1.769,1.769,0,0,0-.191-.29.636.636,0,0,0-.862-.088c-.338.25-.4.477-.2.811q1.808,3.161,3.616,6.321,1.934,3.364,3.882,6.72c.046.079.1.183.177.208A.779.779,0,0,0,132.21,417.313Zm-18.333,7.312c.034.077.047.115.067.151,1.068,1.858,2.129,3.721,3.206,5.573a1.276,1.276,0,0,0,2.022,0,1.468,1.468,0,0,0,.025-1.638c-.992-1.683-1.96-3.381-2.937-5.072-.052-.089-.11-.174-.179-.284ZM130.4,411.6c.271-.438.519-.826.748-1.223.029-.05-.013-.161-.05-.227-.221-.4-.447-.789-.681-1.178-.045-.075-.129-.181-.194-.179-.437.011-.873.047-1.357.078Zm-11.458,11.6-.654-1.128-1.129.654.653,1.127Zm13.249-21.971a.889.889,0,0,0-.546.716c-.029.145-.071.287-.11.429-.154.57-.317,1.136-.459,1.708a.611.611,0,0,0,.712.821.6.6,0,0,0,.473-.494c.192-.723.388-1.444.582-2.166.151-.562.094-.708-.4-1.014Zm3.2,5.78q1.677-.924,3.348-1.858a.625.625,0,0,0,.333-.891.635.635,0,0,0-.937-.179q-1,.549-1.993,1.105c-.479.266-.962.528-1.435.8a.592.592,0,0,0-.281.734.606.606,0,0,0,.653.406A2.094,2.094,0,0,0,135.394,407.014Zm-.76,3.44a.7.7,0,0,0,.461.735c.79.221,1.583.432,2.377.639a.61.61,0,0,0,.807-.395.673.673,0,0,0-.491-.854c-.578-.161-1.159-.307-1.739-.461l-.692-.187A.647.647,0,0,0,134.634,410.455ZM112,422.765c.38-.181.738-.408,1.1-.626a.611.611,0,0,0,.285-.858.622.622,0,0,0-.905-.2c-.323.179-.639.37-.962.549a.665.665,0,0,1-.971-.194.619.619,0,1,0-.988.735,1.972,1.972,0,0,0,1.716.827A4.63,4.63,0,0,0,112,422.765Zm3.666-2.454a.617.617,0,1,0-.606.6A.609.609,0,0,0,115.663,420.312Z" transform="translate(-92.391 -396.22)" fill="#fff"/></g><g transform="translate(1257.818 61.189)"><text transform="translate(0.182 59.811)" fill="#fff" font-size="16" font-family="MicrosoftJhengHeiBold, Microsoft JhengHei"><tspan x="0" y="0">申請項目</tspan></text><path d="M310.565,432.788V420.506h2.065v14.376H285V407.126h14.31v2.059H287.088v23.6Zm-.707-27.357c-1.373,1.376-2.753,2.747-4.123,4.125q-4.226,4.25-8.44,8.513a.721.721,0,0,0-.186.454c-.015,1.292-.009,2.584-.008,3.876,0,.1.013.192.021.319h.377c1.237,0,2.475-.008,3.712.007a.8.8,0,0,0,.634-.266q5.023-5.071,10.056-10.13,1.227-1.235,2.459-2.462c.083-.082.159-.17.218-.235l-4.486-4.484C310.012,405.243,309.944,405.345,309.858,405.43ZM299.2,419.214a.661.661,0,0,1,.225-.344c1.771-1.775,3.55-3.541,5.319-5.318q2.558-2.57,5.1-5.157a1.874,1.874,0,0,0,.207-.3l1.56,1.565c-.039.043-.115.131-.2.214-.843.844-1.689,1.685-2.529,2.532q-3.954,3.983-7.9,7.975a.763.763,0,0,1-.638.26c-.363-.02-.728,0-1.153,0C299.185,420.134,299.17,419.673,299.2,419.214Zm1.618,8.722H290.29v2.048h10.524Z" transform="translate(-267.396 -400.423)" fill="#fff"/></g><text transform="translate(1381 29)" fill="#fff" font-size="12" font-family="MicrosoftJhengHeiRegular, Microsoft JhengHei"><tspan x="0" y="0">熱門關鍵字：</tspan><tspan y="0" text-decoration="underline">教案</tspan><tspan y="0">、</tspan><tspan y="0" text-decoration="underline">行動方案</tspan></text></svg>