<svg xmlns="http://www.w3.org/2000/svg" xmlns:xlink="http://www.w3.org/1999/xlink" width="376" height="55" viewBox="0 0 376 55"><defs><linearGradient id="a" x1="0.5" x2="0.5" y2="1" gradientUnits="objectBoundingBox"><stop offset="0" stop-color="#0bc"/><stop offset="1" stop-color="#00abdb"/></linearGradient></defs><g transform="translate(0.334)"><g transform="translate(0)"><rect width="185" height="55" rx="27.5" transform="translate(-0.334)" fill="url(#a)"/><text transform="translate(32.666 35)" fill="#fff" font-size="20" font-family="MicrosoftJhengHeiBold, Microsoft JhengHei"><tspan x="0" y="0">環境教育活動</tspan></text></g><g transform="translate(195.396 2)"><path d="M26.5,2a24.507,24.507,0,0,0-9.536,47.076A24.345,24.345,0,0,0,26.5,51h129a24.507,24.507,0,0,0,9.536-47.076A24.345,24.345,0,0,0,155.5,2H26.5m0-2h129a26.5,26.5,0,0,1,0,53H26.5a26.5,26.5,0,0,1,0-53Z" transform="translate(-1.73)" fill="#00b5d2"/><text transform="translate(49.27 33)" fill="#00b2d5" font-size="20" font-family="MicrosoftJhengHeiBold, Microsoft JhengHei"><tspan x="0" y="0">系統公告</tspan></text></g></g></svg>